<svg width="48" height="48" viewBox="0 0 48 48" fill="none" xmlns="http://www.w3.org/2000/svg">
    <path d="M43.8399 13.24C43.6369 12.7513 43.2486 12.3629 42.7599 12.16C42.5194 12.0575 42.2612 12.0032 41.9999 12H31.9999C31.4694 12 30.9607 12.2107 30.5857 12.5858C30.2106 12.9609 29.9999 13.4696 29.9999 14C29.9999 14.5304 30.2106 15.0391 30.5857 15.4142C30.9607 15.7893 31.4694 16 31.9999 16H37.1799L25.9999 27.18L19.4199 20.58C19.234 20.3925 19.0127 20.2438 18.769 20.1422C18.5253 20.0407 18.2639 19.9884 17.9999 19.9884C17.7359 19.9884 17.4744 20.0407 17.2307 20.1422C16.987 20.2438 16.7658 20.3925 16.5799 20.58L4.57988 32.58C4.39242 32.7659 4.24363 32.9871 4.1421 33.2308C4.04056 33.4746 3.98828 33.736 3.98828 34C3.98828 34.264 4.04056 34.5254 4.1421 34.7692C4.24363 35.0129 4.39242 35.2341 4.57988 35.42C4.7658 35.6075 4.98701 35.7562 5.23072 35.8578C5.47444 35.9593 5.73585 36.0116 5.99988 36.0116C6.2639 36.0116 6.52531 35.9593 6.76903 35.8578C7.01275 35.7562 7.23395 35.6075 7.41988 35.42L17.9999 24.82L24.5799 31.42C24.7658 31.6075 24.987 31.7562 25.2307 31.8578C25.4744 31.9593 25.7359 32.0116 25.9999 32.0116C26.2639 32.0116 26.5253 31.9593 26.769 31.8578C27.0128 31.7562 27.234 31.6075 27.4199 31.42L39.9999 18.82V24C39.9999 24.5304 40.2106 25.0391 40.5857 25.4142C40.9607 25.7893 41.4694 26 41.9999 26C42.5303 26 43.039 25.7893 43.4141 25.4142C43.7892 25.0391 43.9999 24.5304 43.9999 24V14C43.9967 13.7386 43.9424 13.4804 43.8399 13.24Z" fill="black"/>
</svg>
