<svg width="70" height="70" viewBox="0 0 70 70" fill="none" xmlns="http://www.w3.org/2000/svg">
    <path d="M35 3.5C28.7699 3.5 22.6797 5.34744 17.4996 8.80871C12.3194 12.27 8.28197 17.1896 5.89781 22.9455C3.51365 28.7013 2.88984 35.0349 4.10528 41.1453C5.32071 47.2557 8.3208 52.8685 12.7262 57.2739C17.1315 61.6792 22.7443 64.6793 28.8547 65.8947C34.9651 67.1102 41.2987 66.4864 47.0545 64.1022C52.8104 61.718 57.73 57.6806 61.1913 52.5005C64.6526 47.3203 66.5 41.2301 66.5 35C66.5 26.6457 63.1813 18.6335 57.2739 12.7261C51.3665 6.81874 43.3543 3.5 35 3.5ZM52.5 38.5H17.5V31.5H52.5V38.5Z" fill="#F6465D"/>
</svg>
