<svg width="18" height="18" viewBox="0 0 18 18" fill="none" xmlns="http://www.w3.org/2000/svg">
    <path d="M12.3245 10.1498C12.5167 10.1498 12.7012 10.0734 12.8371 9.93747C12.9731 9.80151 13.0495 9.61711 13.0495 9.42483C13.0495 9.23255 12.9731 9.04815 12.8371 8.91219C12.7012 8.77623 12.5167 8.69984 12.3245 8.69984C12.1322 8.69984 11.9478 8.77623 11.8118 8.91219C11.6759 9.04815 11.5995 9.23255 11.5995 9.42483C11.5995 9.61711 11.6759 9.80151 11.8118 9.93747C11.9478 10.0734 12.1322 10.1498 12.3245 10.1498ZM12.3245 13.0498C12.5167 13.0498 12.7012 12.9734 12.8371 12.8374C12.9731 12.7015 13.0495 12.5171 13.0495 12.3248C13.0495 12.1325 12.9731 11.9481 12.8371 11.8121C12.7012 11.6762 12.5167 11.5998 12.3245 11.5998C12.1322 11.5998 11.9478 11.6762 11.8118 11.8121C11.6759 11.9481 11.5995 12.1325 11.5995 12.3248C11.5995 12.5171 11.6759 12.7015 11.8118 12.8374C11.9478 12.9734 12.1322 13.0498 12.3245 13.0498ZM9.42452 9.42483C9.42452 9.61711 9.34814 9.80151 9.21218 9.93747C9.07621 10.0734 8.89181 10.1498 8.69953 10.1498C8.50725 10.1498 8.32285 10.0734 8.18689 9.93747C8.05093 9.80151 7.97455 9.61711 7.97455 9.42483C7.97455 9.23255 8.05093 9.04815 8.18689 8.91219C8.32285 8.77623 8.50725 8.69984 8.69953 8.69984C8.89181 8.69984 9.07621 8.77623 9.21218 8.91219C9.34814 9.04815 9.42452 9.23255 9.42452 9.42483ZM9.42452 12.3248C9.42452 12.5171 9.34814 12.7015 9.21218 12.8374C9.07621 12.9734 8.89181 13.0498 8.69953 13.0498C8.50725 13.0498 8.32285 12.9734 8.18689 12.8374C8.05093 12.7015 7.97455 12.5171 7.97455 12.3248C7.97455 12.1325 8.05093 11.9481 8.18689 11.8121C8.32285 11.6762 8.50725 11.5998 8.69953 11.5998C8.89181 11.5998 9.07621 11.6762 9.21218 11.8121C9.34814 11.9481 9.42452 12.1325 9.42452 12.3248ZM5.0746 10.1498C5.26688 10.1498 5.45128 10.0734 5.58724 9.93747C5.7232 9.80151 5.79958 9.61711 5.79958 9.42483C5.79958 9.23255 5.7232 9.04815 5.58724 8.91219C5.45128 8.77623 5.26688 8.69984 5.0746 8.69984C4.88232 8.69984 4.69791 8.77623 4.56195 8.91219C4.42599 9.04815 4.34961 9.23255 4.34961 9.42483C4.34961 9.61711 4.42599 9.80151 4.56195 9.93747C4.69791 10.0734 4.88232 10.1498 5.0746 10.1498ZM5.0746 13.0498C5.26688 13.0498 5.45128 12.9734 5.58724 12.8374C5.7232 12.7015 5.79958 12.5171 5.79958 12.3248C5.79958 12.1325 5.7232 11.9481 5.58724 11.8121C5.45128 11.6762 5.26688 11.5998 5.0746 11.5998C4.88232 11.5998 4.69791 11.6762 4.56195 11.8121C4.42599 11.9481 4.34961 12.1325 4.34961 12.3248C4.34961 12.5171 4.42599 12.7015 4.56195 12.8374C4.69791 12.9734 4.88232 13.0498 5.0746 13.0498Z" fill="black"/>
    <path fill-rule="evenodd" clip-rule="evenodd" d="M5.0742 1.26872C5.21841 1.26872 5.35671 1.32601 5.45868 1.42798C5.56065 1.52995 5.61794 1.66825 5.61794 1.81246V2.36563C6.09788 2.3562 6.6264 2.3562 7.20784 2.3562H10.1897C10.7719 2.3562 11.3004 2.3562 11.7803 2.36563V1.81246C11.7803 1.66825 11.8376 1.52995 11.9396 1.42798C12.0416 1.32601 12.1799 1.26872 12.3241 1.26872C12.4683 1.26872 12.6066 1.32601 12.7086 1.42798C12.8105 1.52995 12.8678 1.66825 12.8678 1.81246V2.41203C13.0563 2.42653 13.2349 2.44489 13.4036 2.46713C14.2533 2.58167 14.9413 2.82237 15.4843 3.36466C16.0266 3.90768 16.2673 4.59569 16.3818 5.44537C16.4927 6.27186 16.4927 7.32672 16.4927 8.65924V10.1904C16.4927 11.5229 16.4927 12.5785 16.3818 13.4043C16.2673 14.254 16.0266 14.942 15.4843 15.485C14.9413 16.0273 14.2533 16.268 13.4036 16.3825C12.5771 16.4935 11.5222 16.4935 10.1897 16.4935H7.20929C5.87676 16.4935 4.82118 16.4935 3.99542 16.3825C3.14574 16.268 2.45772 16.0273 1.91471 15.485C1.37242 14.942 1.13172 14.254 1.01717 13.4043C0.90625 12.5778 0.90625 11.5229 0.90625 10.1904V8.65924C0.90625 7.32672 0.90625 6.27113 1.01717 5.44537C1.13172 4.59569 1.37242 3.90768 1.91471 3.36466C2.45772 2.82237 3.14574 2.58167 3.99542 2.46713C4.16458 2.44489 4.34317 2.42653 4.53119 2.41203V1.81246C4.53119 1.66838 4.58837 1.53019 4.69019 1.42824C4.792 1.32629 4.93012 1.26891 5.0742 1.26872ZM4.13897 3.54518C3.41036 3.64306 2.98986 3.8272 2.68319 4.13387C2.37652 4.44054 2.19238 4.86103 2.0945 5.58965C2.07807 5.71289 2.06405 5.84315 2.05245 5.98041H15.3458C15.3342 5.84315 15.3202 5.71265 15.3038 5.58892C15.2059 4.86031 15.0218 4.43982 14.7151 4.13315C14.4084 3.82648 13.9879 3.64233 13.2586 3.54446C12.514 3.44441 11.5317 3.44296 10.1491 3.44296H7.24916C5.86661 3.44296 4.88498 3.44513 4.13897 3.54518ZM1.99301 8.69984C1.99301 8.0807 1.99301 7.54204 2.00243 7.06862H15.3958C15.4053 7.54204 15.4053 8.0807 15.4053 8.69984V10.1498C15.4053 11.5324 15.4038 12.5147 15.3038 13.26C15.2059 13.9886 15.0218 14.4091 14.7151 14.7158C14.4084 15.0225 13.9879 15.2066 13.2586 15.3045C12.514 15.4045 11.5317 15.406 10.1491 15.406H7.24916C5.86661 15.406 4.88498 15.4045 4.13897 15.3045C3.41036 15.2066 2.98986 15.0225 2.68319 14.7158C2.37652 14.4091 2.19238 13.9886 2.0945 13.2593C1.99446 12.5147 1.99301 11.5324 1.99301 10.1498V8.69984Z" fill="black"/>
</svg>
