<svg width="48" height="48" viewBox="0 0 48 48" fill="none" xmlns="http://www.w3.org/2000/svg">
    <path d="M42 16C42 18.04 39.628 19.84 36 20.924C33.732 21.604 30.974 22 28 22C25.026 22 22.268 21.602 20 20.924C16.374 19.84 14 18.04 14 16C14 12.686 20.268 10 28 10C35.732 10 42 12.686 42 16Z" fill="black"/>
    <path d="M42 16C42 12.686 35.732 10 28 10C20.268 10 14 12.686 14 16M42 16V24C42 26.04 39.628 27.84 36 28.924C33.732 29.604 30.974 30 28 30C25.026 30 22.268 29.602 20 28.924C16.374 27.84 14 26.04 14 24V16M42 16C42 18.04 39.628 19.84 36 20.924C33.732 21.604 30.974 22 28 22C25.026 22 22.268 21.602 20 20.924C16.374 19.84 14 18.04 14 16" stroke="black" stroke-width="2" stroke-linecap="round" stroke-linejoin="round"/>
    <path d="M6 24V32C6 34.04 8.374 35.84 12 36.924C14.268 37.604 17.026 38 20 38C22.974 38 25.732 37.602 28 36.924C31.626 35.84 34 34.04 34 32V30M6 24C6 21.606 9.27 19.54 14 18.578M6 24C6 26.04 8.374 27.84 12 28.924C14.268 29.604 17.026 30 20 30C21.39 30 22.732 29.914 24 29.752" stroke="black" stroke-width="2" stroke-linecap="round" stroke-linejoin="round"/>
</svg>
