<svg width="27" height="27" viewBox="0 0 27 27" fill="none" xmlns="http://www.w3.org/2000/svg">
    <path d="M9 7.875C9 8.17337 8.88147 8.45952 8.6705 8.67049C8.45952 8.88147 8.17337 9 7.875 9H6.75C6.45163 9 6.16548 9.11853 5.9545 9.3295C5.74353 9.54048 5.625 9.82663 5.625 10.125V20.25C5.625 20.5484 5.74353 20.8345 5.9545 21.0455C6.16548 21.2565 6.45163 21.375 6.75 21.375H16.875C17.1734 21.375 17.4595 21.2565 17.6705 21.0455C17.8815 20.8345 18 20.5484 18 20.25V19.125C18 18.8266 18.1185 18.5405 18.3295 18.3295C18.5405 18.1185 18.8266 18 19.125 18C19.4234 18 19.7095 18.1185 19.9205 18.3295C20.1315 18.5405 20.25 18.8266 20.25 19.125V20.25C20.25 21.1451 19.8944 22.0036 19.2615 22.6365C18.6286 23.2694 17.7701 23.625 16.875 23.625H6.75C5.85489 23.625 4.99645 23.2694 4.36351 22.6365C3.73058 22.0036 3.375 21.1451 3.375 20.25V10.125C3.375 9.22989 3.73058 8.37145 4.36351 7.73851C4.99645 7.10558 5.85489 6.75 6.75 6.75H7.875C8.17337 6.75 8.45952 6.86853 8.6705 7.07951C8.88147 7.29048 9 7.57663 9 7.875Z" fill="black"/>
    <path d="M16.4205 5.63731L21.3615 10.5783L14.2965 17.6692C14.192 17.774 14.0679 17.8572 13.9312 17.9139C13.7945 17.9707 13.648 17.9999 13.5 17.9999H10.125C9.82663 17.9999 9.54048 17.8814 9.32951 17.6704C9.11853 17.4594 9 17.1733 9 16.8749V13.4999C9.00003 13.3519 9.02926 13.2054 9.08602 13.0687C9.14277 12.932 9.22594 12.8079 9.33075 12.7034L16.4205 5.63731ZM23.7285 3.27143C24.349 3.89148 24.7128 4.72276 24.7472 5.59927C24.7816 6.47578 24.4841 7.33302 23.9141 7.99981L23.7296 8.20231L22.95 8.98306L18.0146 4.04768L18.7965 3.27143C19.4505 2.61742 20.3376 2.25 21.2625 2.25C22.1874 2.25 23.0745 2.61742 23.7285 3.27143Z" fill="black"/>
</svg>
