<svg width="24" height="24" viewBox="0 0 24 24" fill="none" xmlns="http://www.w3.org/2000/svg">
<path d="M8 7C8 7.26522 7.89464 7.51957 7.70711 7.70711C7.51957 7.89464 7.26522 8 7 8H6C5.73478 8 5.48043 8.10536 5.29289 8.29289C5.10536 8.48043 5 8.73478 5 9V18C5 18.2652 5.10536 18.5196 5.29289 18.7071C5.48043 18.8946 5.73478 19 6 19H15C15.2652 19 15.5196 18.8946 15.7071 18.7071C15.8946 18.5196 16 18.2652 16 18V17C16 16.7348 16.1054 16.4804 16.2929 16.2929C16.4804 16.1054 16.7348 16 17 16C17.2652 16 17.5196 16.1054 17.7071 16.2929C17.8946 16.4804 18 16.7348 18 17V18C18 18.7956 17.6839 19.5587 17.1213 20.1213C16.5587 20.6839 15.7956 21 15 21H6C5.20435 21 4.44129 20.6839 3.87868 20.1213C3.31607 19.5587 3 18.7956 3 18V9C3 8.20435 3.31607 7.44129 3.87868 6.87868C4.44129 6.31607 5.20435 6 6 6H7C7.26522 6 7.51957 6.10536 7.70711 6.29289C7.89464 6.48043 8 6.73478 8 7Z" fill="black"/>
<path d="M14.596 5.011L18.988 9.403L12.708 15.706C12.6151 15.7992 12.5048 15.8731 12.3833 15.9235C12.2618 15.974 12.1315 16 12 16H9C8.73478 16 8.48043 15.8946 8.29289 15.7071C8.10536 15.5196 8 15.2652 8 15V12C8.00003 11.8684 8.02601 11.7382 8.07646 11.6167C8.12691 11.4952 8.20083 11.3849 8.294 11.292L14.596 5.011ZM21.092 2.908C21.6435 3.45915 21.9669 4.19807 21.9975 4.97719C22.0281 5.75631 21.7636 6.5183 21.257 7.111L21.093 7.291L20.4 7.985L16.013 3.598L16.708 2.908C17.2894 2.32666 18.0778 2.00006 18.9 2.00006C19.7222 2.00006 20.5106 2.32666 21.092 2.908Z" fill="black"/>
</svg>
