<svg width="32" height="32" viewBox="0 0 32 32" fill="none" xmlns="http://www.w3.org/2000/svg">
    <path fill-rule="evenodd" clip-rule="evenodd" d="M19.5004 3.90131C19.6712 3.90131 19.8402 3.93493 19.9979 4.00026C20.1557 4.06559 20.299 4.16135 20.4197 4.28207C20.5404 4.40278 20.6362 4.54609 20.7015 4.70382C20.7668 4.86154 20.8004 5.03059 20.8004 5.20131C20.8004 5.37202 20.7668 5.54107 20.7015 5.69879C20.6362 5.85652 20.5404 5.99983 20.4197 6.12055C20.299 6.24126 20.1557 6.33702 19.9979 6.40235C19.8402 6.46768 19.6712 6.50131 19.5004 6.50131H7.80044V23.4013C7.80044 23.7461 7.9374 24.0767 8.1812 24.3205C8.425 24.5643 8.75566 24.7013 9.10044 24.7013H19.5004C19.8452 24.7013 20.1759 24.8383 20.4197 25.0821C20.6635 25.3259 20.8004 25.6565 20.8004 26.0013C20.8004 26.3461 20.6635 26.6767 20.4197 26.9205C20.1759 27.1643 19.8452 27.3013 19.5004 27.3013H9.10044C8.0661 27.3013 7.07412 26.8904 6.34272 26.159C5.61133 25.4276 5.20044 24.4356 5.20044 23.4013V5.20131C5.20044 4.85652 5.3374 4.52586 5.5812 4.28207C5.825 4.03827 6.15566 3.90131 6.50044 3.90131H19.5004ZM21.7195 10.7822C21.5378 10.6005 21.3063 10.4768 21.0543 10.4266C20.8023 10.3764 20.541 10.4021 20.3036 10.5003C20.0661 10.5985 19.8631 10.7649 19.7202 10.9784C19.5772 11.1919 19.5008 11.443 19.5004 11.7V14.3H11.7004C11.3557 14.3 11.025 14.437 10.7812 14.6808C10.5374 14.9246 10.4004 15.2552 10.4004 15.6C10.4004 15.9448 10.5374 16.2754 10.7812 16.5192C11.025 16.763 11.3557 16.9 11.7004 16.9H19.5004V19.5C19.5005 19.7571 19.5768 20.0084 19.7196 20.2221C19.8625 20.4358 20.0655 20.6024 20.303 20.7008C20.5405 20.7992 20.8018 20.8249 21.054 20.7748C21.3061 20.7246 21.5377 20.6009 21.7195 20.4191L25.6195 16.5191C25.8633 16.2753 26.0002 15.9447 26.0002 15.6C26.0002 15.2553 25.8633 14.9247 25.6195 14.6809L21.7195 10.7822Z" fill="currentColor"/>
</svg>
