<svg width="32" height="32" viewBox="0 0 32 32" fill="none" xmlns="http://www.w3.org/2000/svg">
<path fill-rule="evenodd" clip-rule="evenodd" d="M19.5002 3.90131C19.6709 3.90131 19.84 3.93493 19.9977 4.00026C20.1554 4.06559 20.2987 4.16135 20.4194 4.28207C20.5402 4.40278 20.6359 4.54609 20.7012 4.70382C20.7666 4.86154 20.8002 5.03059 20.8002 5.20131C20.8002 5.37202 20.7666 5.54107 20.7012 5.69879C20.6359 5.85652 20.5402 5.99983 20.4194 6.12055C20.2987 6.24126 20.1554 6.33702 19.9977 6.40235C19.84 6.46768 19.6709 6.50131 19.5002 6.50131H7.8002V23.4013C7.8002 23.7461 7.93716 24.0767 8.18096 24.3205C8.42475 24.5643 8.75541 24.7013 9.1002 24.7013H19.5002C19.845 24.7013 20.1756 24.8383 20.4194 25.0821C20.6632 25.3259 20.8002 25.6565 20.8002 26.0013C20.8002 26.3461 20.6632 26.6767 20.4194 26.9205C20.1756 27.1643 19.845 27.3013 19.5002 27.3013H9.1002C8.06585 27.3013 7.07387 26.8904 6.34248 26.159C5.61109 25.4276 5.2002 24.4356 5.2002 23.4013V5.20131C5.2002 4.85652 5.33716 4.52586 5.58096 4.28207C5.82475 4.03827 6.15541 3.90131 6.5002 3.90131H19.5002ZM21.7193 10.7822C21.5376 10.6005 21.3061 10.4768 21.0541 10.4266C20.802 10.3764 20.5408 10.4021 20.3033 10.5003C20.0659 10.5985 19.8629 10.7649 19.7199 10.9784C19.577 11.1919 19.5005 11.443 19.5002 11.7V14.3H11.7002C11.3554 14.3 11.0248 14.437 10.781 14.6808C10.5372 14.9246 10.4002 15.2552 10.4002 15.6C10.4002 15.9448 10.5372 16.2754 10.781 16.5192C11.0248 16.763 11.3554 16.9 11.7002 16.9H19.5002V19.5C19.5003 19.7571 19.5765 20.0084 19.7194 20.2221C19.8622 20.4358 20.0652 20.6024 20.3027 20.7008C20.5403 20.7992 20.8016 20.8249 21.0537 20.7748C21.3059 20.7246 21.5375 20.6009 21.7193 20.4191L25.6193 16.5191C25.863 16.2753 25.9999 15.9447 25.9999 15.6C25.9999 15.2553 25.863 14.9247 25.6193 14.6809L21.7193 10.7822Z" fill="white"/>
</svg>
