<svg width="32" height="40" viewBox="0 0 32 40" fill="none" xmlns="http://www.w3.org/2000/svg">
    <path d="M9 24C8.73478 24 8.48043 23.8946 8.29289 23.7071C8.10536 23.5196 8 23.2652 8 23C8 22.7348 8.10536 22.4804 8.29289 22.2929C8.48043 22.1054 8.73478 22 9 22H23C23.2652 22 23.5196 22.1054 23.7071 22.2929C23.8946 22.4804 24 22.7348 24 23C24 23.2652 23.8946 23.5196 23.7071 23.7071C23.5196 23.8946 23.2652 24 23 24H9ZM9 30C8.73478 30 8.48043 29.8946 8.29289 29.7071C8.10536 29.5196 8 29.2652 8 29C8 28.7348 8.10536 28.4804 8.29289 28.2929C8.48043 28.1054 8.73478 28 9 28H23C23.2652 28 23.5196 28.1054 23.7071 28.2929C23.8946 28.4804 24 28.7348 24 29C24 29.2652 23.8946 29.5196 23.7071 29.7071C23.5196 29.8946 23.2652 30 23 30H9Z" fill="black"/>
    <path fill-rule="evenodd" clip-rule="evenodd" d="M18.37 2H5C4.20435 2 3.44129 2.31607 2.87868 2.87868C2.31607 3.44129 2 4.20435 2 5V35C2 35.7957 2.31607 36.5587 2.87868 37.1213C3.44129 37.6839 4.20435 38 5 38H27C27.7956 38 28.5587 37.6839 29.1213 37.1213C29.6839 36.5587 30 35.7957 30 35V14.404C29.9998 13.6529 29.7179 12.9293 29.21 12.376L20.582 2.972C20.3008 2.66549 19.959 2.4208 19.5782 2.25347C19.1974 2.08614 18.7859 1.99982 18.37 2ZM4 5C4 4.73478 4.10536 4.48043 4.29289 4.29289C4.48043 4.10536 4.73478 4 5 4H18.37C18.5088 3.99985 18.646 4.02858 18.7731 4.08436C18.9001 4.14014 19.0142 4.22175 19.108 4.324L27.736 13.728C27.9055 13.9123 27.9998 14.1536 28 14.404V35C28 35.2652 27.8946 35.5196 27.7071 35.7071C27.5196 35.8946 27.2652 36 27 36H5C4.73478 36 4.48043 35.8946 4.29289 35.7071C4.10536 35.5196 4 35.2652 4 35V5Z" fill="black"/>
    <path d="M18 14H29C29.2652 14 29.5196 14.1054 29.7071 14.2929C29.8946 14.4804 30 14.7348 30 15C30 15.2652 29.8946 15.5196 29.7071 15.7071C29.5196 15.8946 29.2652 16 29 16H17C16.7348 16 16.4804 15.8946 16.2929 15.7071C16.1054 15.5196 16 15.2652 16 15V3C16 2.73478 16.1054 2.48043 16.2929 2.29289C16.4804 2.10536 16.7348 2 17 2C17.2652 2 17.5196 2.10536 17.7071 2.29289C17.8946 2.48043 18 2.73478 18 3V14Z" fill="black"/>
</svg>
