<svg width="36" height="36" viewBox="0 0 36 36" fill="none" xmlns="http://www.w3.org/2000/svg">
    <path d="M36 28.1966C36 28.4949 35.8815 28.7811 35.6705 28.9921C35.4595 29.2031 35.1734 29.3216 34.875 29.3216H27.225C26.9744 30.2559 26.4226 31.0814 25.6551 31.6702C24.8876 32.259 23.9473 32.5782 22.98 32.5782C22.0127 32.5782 21.0724 32.259 20.3049 31.6702C19.5374 31.0814 18.9856 30.2559 18.735 29.3216H7.125C6.82663 29.3216 6.54048 29.2031 6.3295 28.9921C6.11853 28.7811 6 28.4949 6 28.1966C6 27.8982 6.11853 27.6121 6.3295 27.4011C6.54048 27.1901 6.82663 27.0716 7.125 27.0716H18.735C18.9856 26.1373 19.5374 25.3117 20.3049 24.7229C21.0724 24.1341 22.0127 23.815 22.98 23.815C23.9473 23.815 24.8876 24.1341 25.6551 24.7229C26.4226 25.3117 26.9744 26.1373 27.225 27.0716H34.875C35.1734 27.0716 35.4595 27.1901 35.6705 27.4011C35.8815 27.6121 36 27.8982 36 28.1966ZM36 8.38158C36 8.67995 35.8815 8.9661 35.6705 9.17708C35.4595 9.38805 35.1734 9.50658 34.875 9.50658H31.2C30.9494 10.4409 30.3976 11.2664 29.6301 11.8552C28.8626 12.444 27.9223 12.7632 26.955 12.7632C25.9877 12.7632 25.0474 12.444 24.2799 11.8552C23.5124 11.2664 22.9606 10.4409 22.71 9.50658H7.125C6.97726 9.50658 6.83097 9.47748 6.69448 9.42094C6.55799 9.36441 6.43397 9.28154 6.3295 9.17708C6.22504 9.07261 6.14217 8.94859 6.08564 8.8121C6.0291 8.67561 6 8.52932 6 8.38158C6 8.23384 6.0291 8.08755 6.08564 7.95106C6.14217 7.81457 6.22504 7.69055 6.3295 7.58608C6.43397 7.48162 6.55799 7.39875 6.69448 7.34222C6.83097 7.28568 6.97726 7.25658 7.125 7.25658H22.71C22.9606 6.32227 23.5124 5.49672 24.2799 4.90793C25.0474 4.31914 25.9877 4 26.955 4C27.9223 4 28.8626 4.31914 29.6301 4.90793C30.3976 5.49672 30.9494 6.32227 31.2 7.25658H34.875C35.0233 7.25456 35.1705 7.28228 35.3079 7.3381C35.4453 7.39393 35.5701 7.47672 35.675 7.58159C35.7799 7.68646 35.8626 7.81128 35.9185 7.94869C35.9743 8.08609 36.002 8.23328 36 8.38158ZM36 18.2816C36.002 18.4299 35.9743 18.5771 35.9185 18.7145C35.8626 18.8519 35.7799 18.9767 35.675 19.0816C35.5701 19.1864 35.4453 19.2692 35.3079 19.3251C35.1705 19.3809 35.0233 19.4086 34.875 19.4066H17.325C17.0744 20.3409 16.5226 21.1664 15.7551 21.7552C14.9876 22.344 14.0473 22.6632 13.08 22.6632C12.1127 22.6632 11.1724 22.344 10.4049 21.7552C9.63737 21.1664 9.08556 20.3409 8.835 19.4066H7.125C6.82663 19.4066 6.54048 19.2881 6.3295 19.0771C6.11853 18.8661 6 18.5799 6 18.2816C6 17.9832 6.11853 17.6971 6.3295 17.4861C6.54048 17.2751 6.82663 17.1566 7.125 17.1566H8.835C9.08556 16.2223 9.63737 15.3967 10.4049 14.8079C11.1724 14.2191 12.1127 13.9 13.08 13.9C14.0473 13.9 14.9876 14.2191 15.7551 14.8079C16.5226 15.3967 17.0744 16.2223 17.325 17.1566H34.875C35.1734 17.1566 35.4595 17.2751 35.6705 17.4861C35.8815 17.6971 36 17.9832 36 18.2816Z" fill="black"/>
</svg>
