<svg width="55" height="55" viewBox="0 0 55 55" fill="none" xmlns="http://www.w3.org/2000/svg">
    <path d="M11.4583 48.125H43.5417C46.0625 48.125 48.125 46.0625 48.125 43.5417V11.4583C48.125 8.9375 46.0625 6.875 43.5417 6.875H11.4583C8.9375 6.875 6.875 8.9375 6.875 11.4583V43.5417C6.875 46.0625 8.9375 48.125 11.4583 48.125ZM19.4792 16.0417C21.3813 16.0417 22.9167 17.5771 22.9167 19.4792C22.9167 21.3813 21.3813 22.9167 19.4792 22.9167C17.5771 22.9167 16.0417 21.3813 16.0417 19.4792C16.0417 17.5771 17.5771 16.0417 19.4792 16.0417ZM11.4583 39.8979L18.3333 33.0229L21.2896 35.9792C22.1833 36.8729 23.6271 36.8729 24.5208 35.9792L36.6438 23.8563L43.5187 30.7313V43.5417H11.4354V39.8979H11.4583Z" fill="#999999"/>
</svg>
