<svg width="27" height="27" viewBox="0 0 27 27" fill="none" xmlns="http://www.w3.org/2000/svg">
    <g clip-path="url(#clip0_243_3037)">
        <mask id="path-1-inside-1_243_3037" fill="white">
            <path d="M26.7342 22.5787C22.7734 15.3435 18.812 8.10839 14.85 0.87323C14.7179 0.622837 14.52 0.413244 14.2775 0.267044C14.0351 0.120843 13.7574 0.0435791 13.4743 0.0435791C13.1912 0.0435791 12.9134 0.120843 12.671 0.267044C12.4286 0.413244 12.2306 0.622837 12.0985 0.87323C8.13754 8.10839 4.17318 15.3435 0.214305 22.5787C-0.39868 23.6962 0.382633 25.145 1.58877 25.145H25.3614C26.0297 25.145 26.4786 24.7851 26.7127 24.297C27.0072 23.8321 27.0861 23.2149 26.7359 22.5779"/>
        </mask>
        <path d="M26.7342 22.5787C22.7734 15.3435 18.812 8.10839 14.85 0.87323C14.7179 0.622837 14.52 0.413244 14.2775 0.267044C14.0351 0.120843 13.7574 0.0435791 13.4743 0.0435791C13.1912 0.0435791 12.9134 0.120843 12.671 0.267044C12.4286 0.413244 12.2306 0.622837 12.0985 0.87323C8.13754 8.10839 4.17318 15.3435 0.214305 22.5787C-0.39868 23.6962 0.382633 25.145 1.58877 25.145H25.3614C26.0297 25.145 26.4786 24.7851 26.7127 24.297C27.0072 23.8321 27.0861 23.2149 26.7359 22.5779" fill="#FFF1F1"/>
        <path d="M14.85 0.87323L14.1866 1.22324L14.1922 1.23346L14.85 0.87323ZM13.4743 0.0435791V-0.706421V0.0435791ZM12.0985 0.87323L12.7565 1.23343L12.7619 1.22319L12.0985 0.87323ZM0.214305 22.5787L0.87188 22.9394L0.872251 22.9387L0.214305 22.5787ZM26.7127 24.297L26.0791 23.8957L26.0555 23.9329L26.0365 23.9726L26.7127 24.297ZM26.7342 22.5787L27.3921 22.2186C23.4312 14.9834 19.4698 7.74819 15.5078 0.513004L14.85 0.87323L14.1922 1.23346C18.1541 8.46859 22.1155 15.7037 26.0763 22.9388L26.7342 22.5787ZM14.85 0.87323L15.5133 0.523266C15.3175 0.152138 15.0242 -0.158513 14.6648 -0.375207L14.2775 0.267044L13.8902 0.909295C14.0157 0.985002 14.1182 1.09353 14.1866 1.22319L14.85 0.87323ZM14.2775 0.267044L14.6648 -0.375207C14.3055 -0.591902 13.8939 -0.706421 13.4743 -0.706421V0.0435791V0.793579C13.6209 0.793579 13.7647 0.833589 13.8902 0.909295L14.2775 0.267044ZM13.4743 0.0435791V-0.706421C13.0546 -0.706421 12.643 -0.591902 12.2837 -0.375207L12.671 0.267044L13.0583 0.909295C13.1838 0.833589 13.3277 0.793579 13.4743 0.793579V0.0435791ZM12.671 0.267044L12.2837 -0.375207C11.9243 -0.158512 11.631 0.15214 11.4352 0.523266L12.0985 0.87323L12.7619 1.22319C12.8303 1.09353 12.9328 0.985001 13.0583 0.909295L12.671 0.267044ZM12.0985 0.87323L11.4407 0.513072C7.47988 7.74785 3.51525 14.9835 -0.443642 22.2187L0.214305 22.5787L0.872251 22.9387C4.8311 15.7036 8.7952 8.46892 12.7564 1.23339L12.0985 0.87323ZM0.214305 22.5787L-0.443271 22.218C-0.884996 23.0233 -0.817443 23.9354 -0.441407 24.6357C-0.0653928 25.336 0.661946 25.895 1.58877 25.895V25.145V24.395C1.30946 24.395 1.04307 24.2296 0.880141 23.9261C0.717232 23.6227 0.700621 23.2516 0.87188 22.9394L0.214305 22.5787ZM1.58877 25.145V25.895H25.3614V25.145V24.395H1.58877V25.145ZM25.3614 25.145V25.895C26.3519 25.895 27.0453 25.3378 27.3889 24.6214L26.7127 24.297L26.0365 23.9726C25.9118 24.2324 25.7075 24.395 25.3614 24.395V25.145ZM26.7127 24.297L27.3463 24.6983C27.7791 24.0151 27.882 23.1059 27.3932 22.2166L26.7359 22.5779L26.0786 22.9391C26.2901 23.3239 26.2353 23.6491 26.0791 23.8957L26.7127 24.297Z" fill="#F6465D" mask="url(#path-1-inside-1_243_3037)"/>
        <path d="M12.1995 14.545L11.8245 8.9501C11.755 7.86025 11.7204 7.07767 11.7207 6.60236C11.7207 5.95521 11.8895 5.45191 12.2278 5.08867C12.5673 4.72727 13.0138 4.54642 13.5673 4.54614C14.2351 4.54614 14.6835 4.7786 14.908 5.24055C15.1349 5.70517 15.2487 6.37328 15.2493 7.24488C15.2493 7.75788 15.2214 8.27931 15.1657 8.80919L14.6637 14.5674C14.6094 15.2533 14.4931 15.7791 14.3148 16.1448C14.1351 16.5122 13.8389 16.6936 13.4251 16.6936C13.0066 16.6936 12.7121 16.5168 12.551 16.1633C12.3852 15.8085 12.2691 15.2689 12.1995 14.545ZM13.4955 22.2303C13.0211 22.2309 12.6066 22.0772 12.2523 21.7692C11.8979 21.4618 11.7207 21.0318 11.7207 20.4791C11.7207 19.9969 11.8895 19.5847 12.2278 19.2468C12.5674 18.9068 12.9813 18.738 13.4728 18.738C13.9642 18.738 14.381 18.9068 14.7287 19.2468C15.0725 19.5847 15.2493 19.9969 15.2493 20.4791C15.2493 21.0233 15.0725 21.4528 14.7236 21.7633C14.3881 22.0687 13.9492 22.2356 13.4955 22.2303Z" fill="#F6465D"/>
    </g>
    <defs>
        <clipPath id="clip0_243_3037">
            <rect width="27" height="27" fill="white"/>
        </clipPath>
    </defs>
</svg>
