<svg width="64" height="64" viewBox="0 0 64 64" fill="none" xmlns="http://www.w3.org/2000/svg">
    <g clip-path="url(#clip0_279_9695)">
        <path d="M63.37 53.52C53.9814 36.37 44.5914 19.22 35.2 2.07C34.8869 1.47648 34.4177 0.979668 33.8431 0.633118C33.2684 0.286569 32.6101 0.103424 31.939 0.103424C31.268 0.103424 30.6096 0.286569 30.035 0.633118C29.4603 0.979668 28.9912 1.47648 28.678 2.07C19.289 19.22 9.89204 36.37 0.508045 53.52C-0.944955 56.169 0.907045 59.603 3.76604 59.603H60.116C61.7 59.603 62.764 58.75 63.319 57.593C64.017 56.491 64.204 55.028 63.374 53.518" fill="#FFDD2D"/>
        <path d="M28.917 34.477L28.028 21.215C27.8633 18.6317 27.7813 16.7767 27.782 15.65C27.782 14.116 28.182 12.923 28.984 12.062C29.7887 11.2053 30.847 10.7767 32.159 10.776C33.742 10.776 34.805 11.327 35.337 12.422C35.875 13.5233 36.1447 15.107 36.146 17.173C36.146 18.389 36.08 19.625 35.948 20.881L34.758 34.53C34.6293 36.156 34.3537 37.4023 33.931 38.269C33.505 39.14 32.803 39.57 31.822 39.57C30.83 39.57 30.132 39.151 29.75 38.313C29.357 37.472 29.082 36.193 28.917 34.477ZM31.989 52.694C30.8643 52.6953 29.882 52.331 29.042 51.601C28.202 50.8723 27.782 49.853 27.782 48.543C27.782 47.4 28.182 46.423 28.984 45.622C29.789 44.816 30.77 44.416 31.935 44.416C33.1 44.416 34.088 44.816 34.912 45.622C35.727 46.423 36.146 47.4 36.146 48.543C36.146 49.833 35.727 50.851 34.9 51.587C34.1047 52.311 33.0644 52.7066 31.989 52.694Z" fill="#1F2E35"/>
    </g>
    <defs>
        <clipPath id="clip0_279_9695">
            <rect width="64" height="64" fill="white"/>
        </clipPath>
    </defs>
</svg>
